<svg xmlns="http://www.w3.org/2000/svg" viewBox="0 0 700 200">
  <path d="M132.5 31.2c18.4 0 35.7 7.2 48.7 20.2 12.9 13 20.1 30.3 20.1 48.7 0 18.4-7.2 35.7-20.1 48.7-13 13-30.3 20.2-48.7 20.2s-35.7-7.2-48.7-20.2c-12.9-13-20.1-30.3-20.1-48.7 0-18.4 7.2-35.7 20.1-48.7 13-13 30.3-20.2 48.7-20.2zm0-31.2c-55.2 0-100 44.8-100 100s44.8 100 100 100 100-44.8 100-100-44.8-100-100-100z" fill="#1E2B4C"/>
  <path d="M130 0v120h130C260 53.7 196.3 0 130 0zm1 40h88c-14.3-11.3-32.3-18-52-18-12.5 0-24.3 2.7-35 7.5V40z" fill="#1E2B4C"/>
  <path d="M276.9 101.3v-30h12.8c3.9 0 7 .9 9.3 2.8 2.3 1.9 3.4 4.5 3.4 7.7 0 1.6-.4 3.1-1.1 4.4-.7 1.3-1.7 2.3-3 3 1.7.5 3 1.4 4 2.7 1 1.4 1.5 3 1.5 4.9 0 3.5-1.2 6.1-3.5 8-2.3 1.8-5.5 2.8-9.6 2.8h-13.8v-6.3zm7.9-13.4v7.4h7.4c3.2 0 4.9-1.3 4.9-3.8 0-2.5-1.6-3.7-4.9-3.7h-7.4zm0-5.3h6.4c3.1 0 4.7-1.2 4.7-3.6 0-2.4-1.6-3.6-4.7-3.6h-6.4v7.2zm28.5 12.5v6.2h-8.1v-30h15.4c3.9 0 7 1 9.2 3 2.2 2 3.3 4.5 3.3 7.7 0 3.1-1.1 5.7-3.3 7.6-2.2 2-5.3 2.9-9.2 2.9h-7.3v2.6h-8.1zm0-9.1h7.3c1.4 0 2.5-.3 3.2-1s1.1-1.6 1.1-2.9c0-1.2-.4-2.2-1.1-2.9-.7-.7-1.8-1-3.2-1h-7.3v7.8zm41.1 15.3c-2.6 0-5-.6-7.1-1.7-2.1-1.1-3.8-2.7-5-4.8-1.2-2-1.8-4.4-1.8-7.1 0-2.6.6-5 1.8-7 1.2-2 2.9-3.6 5-4.8 2.1-1.1 4.4-1.7 7-1.7 2.6 0 4.9.6 7 1.7 2.1 1.1 3.7 2.7 4.9 4.8 1.2 2 1.8 4.4 1.8 7 0 2.7-.6 5-1.8 7.1-1.2 2-2.8 3.6-4.9 4.8-2.1 1.1-4.5 1.7-6.9 1.7zm0-6.3c1.6 0 2.9-.6 3.9-1.7s1.5-2.7 1.5-4.6c0-1.9-.5-3.4-1.5-4.5-1-1.1-2.3-1.7-3.9-1.7-1.6 0-2.9.6-3.9 1.7-1 1.1-1.4 2.6-1.4 4.5 0 1.9.5 3.5 1.4 4.6 1 1.1 2.3 1.7 3.9 1.7zm35.7-18.7v30h-7.9v-30h7.9zm10.6 30v-30h7.9v30h-7.9zm42.9 0h-7.9l-13.5-16.9v16.9h-7.9v-30h7.9l13.5 16.9v-16.9h7.9v30zm31.9-7.4v7.4h-22.9v-30h22.4v7.4h-14.5v4h12.7v7h-12.7v4.2h15z" fill="#1E2B4C"/>
</svg> 